<svg width="39" height="39" viewBox="0 0 39 39" fill="none" xmlns="http://www.w3.org/2000/svg">
<rect x="0.5" y="0.5" width="38" height="38" stroke="#8D8A8A"/>
<path fill-rule="evenodd" clip-rule="evenodd" d="M29.4324 19.4998C29.4324 19.8221 29.3016 20.1313 29.0687 20.3592C28.8359 20.5871 28.5201 20.7152 28.1908 20.7152H13.8055L19.137 25.9315C19.2524 26.0445 19.344 26.1787 19.4065 26.3263C19.4689 26.474 19.5011 26.6322 19.5011 26.792C19.5011 26.9518 19.4689 27.1101 19.4065 27.2577C19.344 27.4053 19.2524 27.5395 19.137 27.6525C19.0215 27.7655 18.8845 27.8551 18.7337 27.9163C18.5828 27.9774 18.4212 28.0089 18.2579 28.0089C18.0947 28.0089 17.933 27.9774 17.7822 27.9163C17.6313 27.8551 17.4943 27.7655 17.3789 27.6525L9.92922 20.3603C9.8136 20.2474 9.72186 20.1133 9.65926 19.9656C9.59667 19.818 9.56445 19.6597 9.56445 19.4998C9.56445 19.34 9.59667 19.1817 9.65926 19.034C9.72186 18.8863 9.8136 18.7522 9.92922 18.6393L17.3789 11.3471C17.612 11.1189 17.9282 10.9907 18.2579 10.9907C18.5876 10.9907 18.9038 11.1189 19.137 11.3471C19.3701 11.5754 19.5011 11.8849 19.5011 12.2076C19.5011 12.5304 19.3701 12.8399 19.137 13.0681L13.8055 18.2844H28.1908C28.5201 18.2844 28.8359 18.4125 29.0687 18.6404C29.3016 18.8683 29.4324 19.1775 29.4324 19.4998Z" fill="#8D8A8A"/>
</svg>
