<svg width="18" height="24" viewBox="0 0 18 24" fill="none" xmlns="http://www.w3.org/2000/svg">
<path d="M17.1973 10.8447H15.5371V4.50098C15.5371 2.49873 14.1382 0.875977 12.4121 0.875977H6.35742C4.63135 0.875977 3.23242 2.49873 3.23242 4.50098V10.8447H1.57227C1.14014 10.8447 0.791016 11.2497 0.791016 11.751V22.626C0.791016 23.1272 1.14014 23.5322 1.57227 23.5322H17.1973C17.6294 23.5322 17.9785 23.1272 17.9785 22.626V11.751C17.9785 11.2497 17.6294 10.8447 17.1973 10.8447ZM10.0684 17.5566V19.0576C10.0684 19.1822 9.98047 19.2842 9.87305 19.2842H8.89648C8.78906 19.2842 8.70117 19.1822 8.70117 19.0576V17.5566C8.49964 17.3888 8.34922 17.1511 8.27156 16.8778C8.19389 16.6045 8.193 16.3096 8.269 16.0357C8.345 15.7617 8.49397 15.5228 8.69447 15.3533C8.89498 15.1838 9.13667 15.0925 9.38477 15.0925C9.63286 15.0925 9.87455 15.1838 10.0751 15.3533C10.2756 15.5228 10.4245 15.7617 10.5005 16.0357C10.5765 16.3096 10.5756 16.6045 10.498 16.8778C10.4203 17.1511 10.2699 17.3888 10.0684 17.5566ZM13.7793 10.8447H4.99023V4.50098C4.99023 3.62588 5.60303 2.91504 6.35742 2.91504H12.4121C13.1665 2.91504 13.7793 3.62588 13.7793 4.50098V10.8447Z" fill="black"/>
</svg>
