<svg width="14" height="10" viewBox="0 0 14 10" fill="none" xmlns="http://www.w3.org/2000/svg">
<path fill-rule="evenodd" clip-rule="evenodd" d="M14.0009 5.09731C14.0009 4.9647 13.9482 4.83753 13.8544 4.74376C13.7607 4.64999 13.6335 4.59731 13.5009 4.59731H1.70789L4.85489 1.45131C4.90138 1.40482 4.93826 1.34963 4.96342 1.28889C4.98858 1.22816 5.00153 1.16306 5.00153 1.09731C5.00153 1.03157 4.98858 0.966467 4.96342 0.905728C4.93826 0.844988 4.90138 0.789799 4.85489 0.743311C4.80841 0.696823 4.75322 0.659947 4.69248 0.634788C4.63174 0.609629 4.56664 0.59668 4.50089 0.59668C4.43515 0.59668 4.37005 0.609629 4.30931 0.634788C4.24857 0.659947 4.19338 0.696823 4.14689 0.743311L0.146894 4.74331C0.100331 4.78976 0.0633877 4.84493 0.0381812 4.90568C0.0129748 4.96642 0 5.03154 0 5.09731C0 5.16308 0.0129748 5.2282 0.0381812 5.28894C0.0633877 5.34969 0.100331 5.40487 0.146894 5.45131L4.14689 9.45131C4.19338 9.4978 4.24857 9.53468 4.30931 9.55983C4.37005 9.58499 4.43515 9.59794 4.50089 9.59794C4.56664 9.59794 4.63174 9.58499 4.69248 9.55983C4.75322 9.53468 4.80841 9.4978 4.85489 9.45131C4.90138 9.40482 4.93826 9.34963 4.96342 9.28889C4.98858 9.22816 5.00153 9.16305 5.00153 9.09731C5.00153 9.03157 4.98858 8.96647 4.96342 8.90573C4.93826 8.84499 4.90138 8.7898 4.85489 8.74331L1.70789 5.59731H13.5009C13.6335 5.59731 13.7607 5.54463 13.8544 5.45086C13.9482 5.3571 14.0009 5.22992 14.0009 5.09731Z" fill="black"/>
</svg>
