<svg width="39" height="39" viewBox="0 0 39 39" fill="none" xmlns="http://www.w3.org/2000/svg">
<rect x="-0.5" y="0.5" width="38" height="38" transform="matrix(-1 0 0 1 38 0)" stroke="#8D8A8A"/>
<path fill-rule="evenodd" clip-rule="evenodd" d="M9.56762 19.4998C9.56762 19.8221 9.69843 20.1313 9.93128 20.3592C10.1641 20.5871 10.4799 20.7152 10.8092 20.7152H25.1945L19.863 25.9315C19.7476 26.0445 19.656 26.1787 19.5935 26.3263C19.5311 26.474 19.4989 26.6322 19.4989 26.792C19.4989 26.9518 19.5311 27.1101 19.5935 27.2577C19.656 27.4053 19.7476 27.5395 19.863 27.6525C19.9785 27.7655 20.1155 27.8551 20.2663 27.9163C20.4172 27.9774 20.5788 28.0089 20.7421 28.0089C20.9053 28.0089 21.067 27.9774 21.2178 27.9163C21.3687 27.8551 21.5057 27.7655 21.6211 27.6525L29.0708 20.3603C29.1864 20.2474 29.2781 20.1133 29.3407 19.9656C29.4033 19.818 29.4355 19.6597 29.4355 19.4998C29.4355 19.34 29.4033 19.1817 29.3407 19.034C29.2781 18.8863 29.1864 18.7522 29.0708 18.6393L21.6211 11.3471C21.388 11.1189 21.0718 10.9907 20.7421 10.9907C20.4124 10.9907 20.0962 11.1189 19.863 11.3471C19.6299 11.5754 19.4989 11.8849 19.4989 12.2076C19.4989 12.5304 19.6299 12.8399 19.863 13.0681L25.1945 18.2844H10.8092C10.4799 18.2844 10.1641 18.4125 9.93128 18.6404C9.69843 18.8683 9.56762 19.1775 9.56762 19.4998Z" fill="#8D8A8A"/>
</svg>
