<svg width="23" height="23" viewBox="0 0 23 23" fill="none" xmlns="http://www.w3.org/2000/svg">
<path d="M0.633301 0.950619C0.633301 0.756126 0.710565 0.5696 0.848096 0.432073C0.985627 0.294547 1.17216 0.217285 1.36666 0.217285H3.56672C3.73031 0.21733 3.88918 0.272066 4.01808 0.372788C4.14697 0.47351 4.23849 0.614435 4.27808 0.773152L4.8721 3.15062H21.9006C22.0083 3.15072 22.1146 3.17453 22.2121 3.22036C22.3095 3.26619 22.3957 3.33292 22.4644 3.4158C22.5332 3.49868 22.5828 3.59568 22.6098 3.69991C22.6369 3.80414 22.6406 3.91305 22.6208 4.01889L20.4207 15.7522C20.3893 15.9203 20.3001 16.072 20.1686 16.1813C20.0371 16.2906 19.8715 16.3505 19.7006 16.3506H6.50015C6.32918 16.3505 6.16363 16.2906 6.03214 16.1813C5.90064 16.072 5.81145 15.9203 5.77999 15.7522L3.58139 4.04089L2.99471 1.68395H1.36666C1.17216 1.68395 0.985627 1.60669 0.848096 1.46916C0.710565 1.33164 0.633301 1.14511 0.633301 0.950619ZM5.18304 4.61729L7.10883 14.884H19.0919L21.0177 4.61729H5.18304ZM7.96686 16.3506C7.18887 16.3506 6.44274 16.6597 5.89262 17.2098C5.34249 17.7599 5.03344 18.506 5.03344 19.284C5.03344 20.0619 5.34249 20.808 5.89262 21.3581C6.44274 21.9082 7.18887 22.2173 7.96686 22.2173C8.74485 22.2173 9.49098 21.9082 10.0411 21.3581C10.5912 20.808 10.9003 20.0619 10.9003 19.284C10.9003 18.506 10.5912 17.7599 10.0411 17.2098C9.49098 16.6597 8.74485 16.3506 7.96686 16.3506ZM18.2338 16.3506C17.4559 16.3506 16.7097 16.6597 16.1596 17.2098C15.6095 17.7599 15.3004 18.506 15.3004 19.284C15.3004 20.0619 15.6095 20.808 16.1596 21.3581C16.7097 21.9082 17.4559 22.2173 18.2338 22.2173C19.0118 22.2173 19.758 21.9082 20.3081 21.3581C20.8582 20.808 21.1673 20.0619 21.1673 19.284C21.1673 18.506 20.8582 17.7599 20.3081 17.2098C19.758 16.6597 19.0118 16.3506 18.2338 16.3506ZM7.96686 17.8173C8.35586 17.8173 8.72892 17.9718 9.00398 18.2469C9.27904 18.5219 9.43357 18.895 9.43357 19.284C9.43357 19.6729 9.27904 20.046 9.00398 20.321C8.72892 20.5961 8.35586 20.7506 7.96686 20.7506C7.57786 20.7506 7.2048 20.5961 6.92974 20.321C6.65468 20.046 6.50015 19.6729 6.50015 19.284C6.50015 18.895 6.65468 18.5219 6.92974 18.2469C7.2048 17.9718 7.57786 17.8173 7.96686 17.8173ZM18.2338 17.8173C18.6228 17.8173 18.9959 17.9718 19.271 18.2469C19.546 18.5219 19.7006 18.895 19.7006 19.284C19.7006 19.6729 19.546 20.046 19.271 20.321C18.9959 20.5961 18.6228 20.7506 18.2338 20.7506C17.8448 20.7506 17.4718 20.5961 17.1967 20.321C16.9217 20.046 16.7671 19.6729 16.7671 19.284C16.7671 18.895 16.9217 18.5219 17.1967 18.2469C17.4718 17.9718 17.8448 17.8173 18.2338 17.8173Z" fill="#4E4D4D"/>
</svg>
