<?xml version="1.0" encoding="UTF-8" standalone="no"?>
<!DOCTYPE svg PUBLIC "-//W3C//DTD SVG 1.1//EN" "http://www.w3.org/Graphics/SVG/1.1/DTD/svg11.dtd">
<svg width="100%" height="100%" viewBox="0 0 560 561" version="1.1" xmlns="http://www.w3.org/2000/svg" xmlns:xlink="http://www.w3.org/1999/xlink" xml:space="preserve" xmlns:serif="http://www.serif.com/" style="fill-rule:evenodd;clip-rule:evenodd;stroke-linejoin:round;stroke-miterlimit:2;">
    <g transform="matrix(1,0,0,1,-69.9996,6.967e-07)">
        <g>
            <path d="M477.01,174.3L222.99,174.3C218.08,174.749 213.451,176.788 209.802,180.105C206.158,183.425 203.693,187.843 202.786,192.691C202.622,193.366 202.536,194.058 202.536,194.753L202.536,365.233C202.743,370.593 204.962,375.678 208.755,379.471C212.544,383.264 217.63,385.487 222.989,385.694L476.999,385.694C482.425,385.694 487.628,383.538 491.468,379.702C495.304,375.862 497.46,370.659 497.46,365.233L497.46,194.753C497.46,189.331 495.304,184.128 491.468,180.292C487.636,176.456 482.433,174.299 477.007,174.299L477.01,174.3ZM470.385,191.331L350.865,292.471L231.595,191.331L470.385,191.331ZM480.412,365.241L480.416,365.241C480.416,367.124 478.889,368.651 477.002,368.651L223.022,368.651C222.057,368.585 219.569,366.886 219.569,365.237L219.569,197.097L311.21,274.808L239.351,340.285L239.347,340.285C236.878,342.551 236.706,346.387 238.964,348.863C241.218,351.34 245.054,351.523 247.538,349.277L317.94,285.132L317.94,285.128C319.44,283.765 321.721,283.722 323.268,285.035L346.916,305.09L346.912,305.09C349.182,307.019 352.514,307.019 354.78,305.09L382.042,282.024L455.854,349.278L455.854,349.274C457.045,350.367 458.623,350.942 460.236,350.867C461.854,350.797 463.373,350.086 464.459,348.891C465.549,347.696 466.119,346.117 466.041,344.5C465.963,342.887 465.244,341.371 464.045,340.285L391.404,274.101L480.412,198.789L480.412,365.241Z" style="fill-rule:nonzero;"/>
            <path d="M350.01,0C294.631,-0.004 240.49,16.418 194.45,47.18C148.403,77.946 112.512,121.676 91.32,172.84C70.125,224.004 64.574,280.3 75.379,334.62C86.18,388.936 112.844,438.83 152,477.99C191.156,517.15 241.047,543.822 295.36,554.627C349.672,565.432 405.97,559.893 457.14,538.701C508.31,517.509 552.035,481.623 582.8,435.581C613.57,389.538 629.991,335.401 629.995,280.021C629.999,230.873 617.061,182.587 592.487,140.021C567.917,97.455 532.569,62.107 490.007,37.531C447.441,12.953 399.159,0.015 350.007,0.011L350.01,0ZM350.01,541.27C280.721,541.27 214.27,513.743 165.28,464.75C116.284,415.754 88.76,349.3 88.76,280.01C88.76,210.721 116.283,144.27 165.28,95.28C214.277,46.29 280.73,18.76 350.01,18.76C419.299,18.76 485.75,46.283 534.75,95.28C583.742,144.276 611.27,210.73 611.27,280.01C611.27,325.869 599.2,370.924 576.266,410.64C553.336,450.355 520.356,483.335 480.641,506.265C440.926,529.199 395.871,541.269 350.011,541.269L350.01,541.27Z" style="fill-rule:nonzero;"/>
        </g>
    </g>
</svg>
