<svg width="20" height="23" viewBox="0 0 20 23" fill="none" xmlns="http://www.w3.org/2000/svg">
<path d="M9.7959 11.7812C12.5573 11.7812 14.7959 9.54267 14.7959 6.78125C14.7959 4.01983 12.5573 1.78125 9.7959 1.78125C7.03447 1.78125 4.7959 4.01983 4.7959 6.78125C4.7959 9.54267 7.03447 11.7812 9.7959 11.7812Z" stroke="black" stroke-width="2"/>
<path d="M14.796 13.7813H15.148C15.879 13.7815 16.5849 14.0486 17.1329 14.5325C17.6809 15.0164 18.0333 15.6838 18.124 16.4093L18.515 19.5333C18.5501 19.8147 18.525 20.1004 18.4414 20.3714C18.3577 20.6424 18.2173 20.8924 18.0296 21.105C17.8419 21.3176 17.6111 21.4879 17.3525 21.6045C17.094 21.7211 16.8136 21.7813 16.53 21.7812H3.06196C2.77834 21.7813 2.49795 21.7211 2.2394 21.6045C1.98086 21.4879 1.75006 21.3176 1.56233 21.105C1.37461 20.8924 1.23425 20.6424 1.15056 20.3714C1.06688 20.1004 1.04179 19.8147 1.07696 19.5333L1.46696 16.4093C1.55766 15.6835 1.91037 15.0158 2.45879 14.5319C3.00721 14.0479 3.71354 13.781 4.44496 13.7813H4.79596" stroke="black" stroke-width="2" stroke-linecap="round" stroke-linejoin="round"/>
</svg>
