<svg width="67" height="66" viewBox="0 0 67 66" fill="none" xmlns="http://www.w3.org/2000/svg">
<path fill-rule="evenodd" clip-rule="evenodd" d="M0.855469 33C0.855469 24.2479 4.33224 15.8542 10.5209 9.66548C16.7096 3.47678 25.1033 0 33.8555 0C42.6076 0 51.0013 3.47678 57.19 9.66548C63.3787 15.8542 66.8555 24.2479 66.8555 33C66.8555 41.7521 63.3787 50.1458 57.19 56.3345C51.0013 62.5232 42.6076 66 33.8555 66C25.1033 66 16.7096 62.5232 10.5209 56.3345C4.33224 50.1458 0.855469 41.7521 0.855469 33H0.855469ZM31.9723 47.124L50.9715 23.3728L47.5395 20.6272L31.3387 40.8716L19.8635 31.3104L17.0475 34.6896L31.9723 47.1284V47.124Z" fill="#719296"/>
</svg>
