<svg width="31" height="30" viewBox="0 0 31 30" fill="none" xmlns="http://www.w3.org/2000/svg">
<path d="M15.918 6.25C11.0942 6.25 7.16797 10.1763 7.16797 15C7.16797 19.8237 11.0942 23.75 15.918 23.75C20.7417 23.75 24.668 19.8237 24.668 15C24.668 10.1763 20.7417 6.25 15.918 6.25ZM15.918 21.25C12.4717 21.25 9.66797 18.4462 9.66797 15C9.66797 11.5538 12.4717 8.75 15.918 8.75C19.3642 8.75 22.168 11.5538 22.168 15C22.168 18.4462 19.3642 21.25 15.918 21.25Z" fill="black"/>
<path d="M15.918 11.25C13.8842 11.25 12.168 12.9663 12.168 15C12.168 17.0338 13.8842 18.75 15.918 18.75C17.9517 18.75 19.668 17.0338 19.668 15C19.668 12.9663 17.9517 11.25 15.918 11.25Z" fill="black"/>
</svg>
