<svg width="19" height="24" viewBox="0 0 19 24" fill="none" xmlns="http://www.w3.org/2000/svg">
<path d="M17.3232 10.8423H15.6631V4.49854C15.6631 2.49629 14.2642 0.873535 12.5381 0.873535H6.4834C4.75732 0.873535 3.3584 2.49629 3.3584 4.49854V10.8423H1.69824C1.26611 10.8423 0.916992 11.2473 0.916992 11.7485V22.6235C0.916992 23.1248 1.26611 23.5298 1.69824 23.5298H17.3232C17.7554 23.5298 18.1045 23.1248 18.1045 22.6235V11.7485C18.1045 11.2473 17.7554 10.8423 17.3232 10.8423ZM5.11621 4.49854C5.11621 3.62344 5.729 2.9126 6.4834 2.9126H12.5381C13.2925 2.9126 13.9053 3.62344 13.9053 4.49854V10.8423H5.11621V4.49854ZM16.3467 21.4907H2.6748V12.8813H16.3467V21.4907ZM8.82715 17.5542V19.0552C8.82715 19.1798 8.91504 19.2817 9.02246 19.2817H9.99902C10.1064 19.2817 10.1943 19.1798 10.1943 19.0552V17.5542C10.3959 17.3864 10.5463 17.1487 10.624 16.8753C10.7016 16.602 10.7025 16.3072 10.6265 16.0332C10.5505 15.7593 10.4015 15.5203 10.201 15.3509C10.0005 15.1814 9.75883 15.0901 9.51074 15.0901C9.26265 15.0901 9.02096 15.1814 8.82045 15.3509C8.61995 15.5203 8.47097 15.7593 8.39497 16.0332C8.31897 16.3072 8.31987 16.602 8.39753 16.8753C8.4752 17.1487 8.62562 17.3864 8.82715 17.5542Z" fill="black"/>
</svg>
